<svg t="1573185855987" class="icon" viewBox="0 0 1024 1024" version="1.1" xmlns="http://www.w3.org/2000/svg" p-id="8027" width="200" height="200"><path d="M724.3008 7.424C728.9344 2.816 735.3344 0 742.4 0 756.5568 0 768 11.52 768 25.6 768 32.768 765.1328 39.168 760.4992 43.776L316.8512 512 760.4992 980.224C765.1328 984.832 768 991.232 768 998.4 768 1012.48 756.5568 1024 742.4 1024 735.3344 1024 728.9344 1021.184 724.3008 1016.576L263.5008 530.176C258.8672 525.568 256 519.168 256 512 256 504.832 258.8672 498.432 263.5008 493.824L724.3008 7.424Z" p-id="8028"></path></svg>