<svg t="1573187075214" class="icon" viewBox="0 0 1024 1024" version="1.1" xmlns="http://www.w3.org/2000/svg" p-id="8144" width="200" height="200"><path d="M968.533333 665.6c-8.533333-34.133333-38.4-55.466667-72.533333-46.933333-34.133333 8.533333-55.466667 38.4-46.933333 72.533333l4.266666 12.8-42.666666-29.866667V337.066667c0-8.533333-4.266667-17.066667-8.533334-25.6-4.266667-8.533333-12.8-17.066667-21.333333-21.333334l-332.8-179.2c-17.066667-8.533333-34.133333-8.533333-46.933333 0L68.266667 290.133333l-12.8 12.8-4.266667 4.266667c-4.266667 12.8-8.533333 21.333333-8.533333 29.866667v349.866666c0 21.333333 8.533333 38.4 25.6 46.933334l332.8 179.2c8.533333 4.266667 17.066667 4.266667 25.6 4.266666h4.266666c8.533333 0 17.066667-4.266667 21.333334-4.266666l268.8-145.066667 59.733333 42.666667h-8.533333c-34.133333 8.533333-55.466667 38.4-51.2 72.533333 8.533333 34.133333 38.4 55.466667 72.533333 51.2l213.333333-42.666667-38.4-226.133333z m-537.6 179.2v-341.333333L742.4 341.333333h4.266667v281.6l-119.466667-81.066666c-29.866667-21.333333-68.266667-12.8-89.6 17.066666s-12.8 68.266667 17.066667 89.6l102.4 68.266667-226.133334 128z m358.4 46.933333c-12.8 4.266667-21.333333-4.266667-25.6-17.066666s4.266667-21.333333 17.066667-25.6l106.666667-21.333334-128-85.333333-64-42.666667-123.733334-81.066666c-8.533333-8.533333-12.8-21.333333-4.266666-29.866667s21.333333-12.8 29.866666-4.266667l140.8 93.866667 59.733334 38.4 110.933333 72.533333-21.333333-110.933333c0-8.533333 4.266667-21.333333 17.066666-21.333333s21.333333 4.266667 21.333334 17.066666l34.133333 187.733334-170.666667 29.866666z" p-id="8145"></path></svg>